<svg width="37" height="22" viewBox="0 0 37 22" fill="none" xmlns="http://www.w3.org/2000/svg">
<path d="M4.11189 6.85316V9.13754V10.9651V11.3648C4.11189 13.1923 2.62704 14.6201 0.799535 14.6201C0.342658 14.6201 0 14.2774 0 13.8205V12.7926C0 11.6504 0.513987 10.6224 1.37063 9.93708V6.85316C1.37063 3.08392 4.39744 5.24521e-06 8.22379 5.24521e-06H10.5082H14.6201H24.6714C26.8415 5.24521e-06 28.8404 1.02798 30.0968 2.68416L32.8951 6.22495V5.93941C32.8951 5.19698 33.4662 4.56877 34.2658 4.56877C35.0082 4.56877 35.6364 5.19698 35.6364 5.93941V9.82286L35.8648 10.1084C36.2646 10.6795 36.5502 11.3648 36.5502 12.0501V17.9324C36.5502 20.1597 34.7226 21.9301 32.4954 21.9301C31.1247 21.9301 29.8683 21.2448 29.1259 20.1026L26.6702 16.2762C26.556 16.0478 26.4989 15.8194 26.4989 15.5338V12.9068L25.5851 11.8788V19.1888C25.5851 20.7308 24.3287 21.9301 22.8438 21.9301H21.0163C19.4744 21.9301 18.2751 20.7308 18.2751 19.1888V17.9895C18.1037 18.0466 17.9324 18.0466 17.8182 18.1038V18.732C17.8182 19.2459 17.3613 19.6457 16.9044 19.6457C16.3905 19.6457 15.9907 19.2459 15.9907 18.732V18.2751C15.8194 18.2751 15.648 18.2751 15.5338 18.2751C15.3625 18.2751 15.1912 18.2751 15.0769 18.2751V18.732C15.0769 19.2459 14.6201 19.6457 14.1632 19.6457C13.6492 19.6457 13.2494 19.2459 13.2494 18.732V18.1038C13.0781 18.0466 12.9068 18.0466 12.7926 17.9895V19.1888C12.7926 20.7308 11.5361 21.9301 10.0513 21.9301H8.22379C6.68183 21.9301 5.48252 20.7308 5.48252 19.1888V5.02565C5.48252 4.56877 5.53963 4.1119 5.65385 3.65502C4.68299 4.39745 4.11189 5.53964 4.11189 6.85316ZM9.30887 3.08392C8.62355 3.48369 8.22379 4.22612 8.22379 5.02565V19.1888H10.0513V16.4476V15.9907V15.5338C10.0513 12.507 12.507 10.0513 15.5338 10.0513C18.5606 10.0513 21.0163 12.507 21.0163 15.5338V15.9907V16.4476V19.1888H22.8438V8.22379C22.8438 7.65269 23.1865 7.19582 23.7005 6.96738C24.2145 6.79605 24.8427 6.91027 25.1853 7.36715L28.8404 11.479C29.0688 11.7075 29.2401 12.0501 29.2401 12.3357V15.1341L31.4103 18.6177C31.6387 19.0175 32.0385 19.1888 32.4954 19.1888C33.1807 19.1888 33.8089 18.6177 33.8089 17.9324V12.0501C33.8089 11.993 33.7518 11.8788 33.6947 11.7646L27.9266 4.39745C27.1842 3.36947 25.9849 2.79838 24.6714 2.79838H21.8159C21.6445 3.59791 21.2448 4.34034 20.6166 4.96854L20.1597 5.42542C18.9604 6.62472 17.2471 7.31004 15.5338 7.31004C13.7634 7.31004 12.0501 6.62472 10.8508 5.42542L10.394 4.96854C9.87996 4.45456 9.4802 3.82635 9.30887 3.08392ZM12.8497 15.1912C13.4208 15.3625 14.2774 15.5909 15.5338 15.5909C16.7331 15.5909 17.5898 15.3625 18.1609 15.1912L18.218 15.1341C18.0466 13.8205 16.9044 12.7926 15.5338 12.7926C14.1061 12.7926 13.021 13.8205 12.7926 15.1341L12.8497 15.1912ZM32.8951 14.6201C32.8951 15.1341 32.4383 15.5338 31.9814 15.5338C31.4674 15.5338 31.0676 15.1341 31.0676 14.6201C31.0676 14.1632 31.4674 13.7063 31.9814 13.7063C32.4383 13.7063 32.8951 14.1632 32.8951 14.6201Z" fill="#3E3C4C"/>
</svg>
