<svg width="13" height="11" viewBox="0 0 13 11" fill="none" xmlns="http://www.w3.org/2000/svg">
<path d="M0 0.65625C0 0.300781 0.273438 0 0.65625 0H11.5938C11.9492 0 12.25 0.300781 12.25 0.65625C12.25 1.03906 11.9492 1.3125 11.5938 1.3125H0.65625C0.273438 1.3125 0 1.03906 0 0.65625ZM0 5.03125C0 4.67578 0.273438 4.375 0.65625 4.375H11.5938C11.9492 4.375 12.25 4.67578 12.25 5.03125C12.25 5.41406 11.9492 5.6875 11.5938 5.6875H0.65625C0.273438 5.6875 0 5.41406 0 5.03125ZM12.25 9.40625C12.25 9.78906 11.9492 10.0625 11.5938 10.0625H0.65625C0.273438 10.0625 0 9.78906 0 9.40625C0 9.05078 0.273438 8.75 0.65625 8.75H11.5938C11.9492 8.75 12.25 9.05078 12.25 9.40625Z" fill="white"/>
</svg>
