<svg width="16" height="15" viewBox="0 0 16 15" fill="none" xmlns="http://www.w3.org/2000/svg">
<path d="M6.64453 0.164062C6.94531 0.328125 7.08203 0.738281 6.91797 1.06641L4.67578 5.33203H11.0469L8.80469 1.06641C8.64062 0.738281 8.77734 0.328125 9.07812 0.164062C9.40625 0 9.81641 0.136719 9.98047 0.4375L12.5234 5.33203H13.5078H14.875H15.0938C15.4492 5.33203 15.75 5.63281 15.75 5.98828C15.75 6.37109 15.4492 6.64453 15.0938 6.64453H14.5469L13.0156 12.7695C12.8242 13.5352 12.1133 14.082 11.3203 14.082H4.42969C3.60938 14.082 2.92578 13.5352 2.70703 12.7695L1.20312 6.64453H0.65625C0.273438 6.64453 0 6.37109 0 5.98828C0 5.63281 0.273438 5.33203 0.65625 5.33203H0.875H2.21484H3.19922L5.74219 0.4375C5.90625 0.136719 6.31641 0 6.64453 0.164062ZM2.54297 6.64453L3.99219 12.4414C4.04688 12.6328 4.21094 12.7695 4.42969 12.7695H11.3203C11.5117 12.7695 11.6758 12.6328 11.7305 12.4414L13.1797 6.64453H2.54297ZM6.125 8.61328V10.8008C6.125 11.1836 5.82422 11.457 5.46875 11.457C5.08594 11.457 4.8125 11.1836 4.8125 10.8008V8.61328C4.8125 8.25781 5.08594 7.95703 5.46875 7.95703C5.82422 7.95703 6.125 8.25781 6.125 8.61328ZM7.875 7.95703C8.23047 7.95703 8.53125 8.25781 8.53125 8.61328V10.8008C8.53125 11.1836 8.23047 11.457 7.875 11.457C7.49219 11.457 7.21875 11.1836 7.21875 10.8008V8.61328C7.21875 8.25781 7.49219 7.95703 7.875 7.95703ZM10.9375 8.61328V10.8008C10.9375 11.1836 10.6367 11.457 10.2812 11.457C9.89844 11.457 9.625 11.1836 9.625 10.8008V8.61328C9.625 8.25781 9.89844 7.95703 10.2812 7.95703C10.6367 7.95703 10.9375 8.25781 10.9375 8.61328Z" fill="#3E3C4C"/>
</svg>
