<svg width="13" height="13" viewBox="0 0 13 13" fill="none" xmlns="http://www.w3.org/2000/svg">
<path d="M9.35156 1.3125H6.78125V3.5H10.6094L9.76172 1.58594C9.67969 1.42188 9.51562 1.3125 9.35156 1.3125ZM10.9375 4.8125H1.3125V10.5C1.3125 10.7461 1.50391 10.9375 1.75 10.9375H10.5C10.7188 10.9375 10.9375 10.7461 10.9375 10.5V4.8125ZM1.61328 3.5H5.46875V1.3125H2.87109C2.70703 1.3125 2.54297 1.42188 2.48828 1.58594L1.61328 3.5ZM9.35156 0C10.0352 0 10.6641 0.410156 10.9375 1.03906L12.0859 3.60938C12.1953 3.82812 12.25 4.07422 12.25 4.32031V10.5C12.25 11.4844 11.457 12.25 10.5 12.25H1.75C0.765625 12.25 0 11.4844 0 10.5V4.32031C0 4.07422 0.0273438 3.82812 0.136719 3.60938L1.28516 1.03906C1.55859 0.410156 2.1875 0 2.87109 0H9.35156Z" fill="#3E3C4C"/>
</svg>
