<svg width="13" height="14" viewBox="0 0 13 14" fill="none" xmlns="http://www.w3.org/2000/svg">
<path d="M4.15625 0.65625V1.75H8.09375V0.65625C8.09375 0.300781 8.36719 0 8.75 0C9.10547 0 9.40625 0.300781 9.40625 0.65625V1.75H10.5C11.457 1.75 12.25 2.54297 12.25 3.5V3.9375V5.25V12.25C12.25 13.2344 11.457 14 10.5 14H1.75C0.765625 14 0 13.2344 0 12.25V5.25V3.9375V3.5C0 2.54297 0.765625 1.75 1.75 1.75H2.84375V0.65625C2.84375 0.300781 3.11719 0 3.5 0C3.85547 0 4.15625 0.300781 4.15625 0.65625ZM1.3125 5.25V12.25C1.3125 12.4961 1.50391 12.6875 1.75 12.6875H10.5C10.7188 12.6875 10.9375 12.4961 10.9375 12.25V5.25H1.3125Z" fill="#209D38"/>
</svg>
