<svg width="14" height="14" viewBox="0 0 14 14" fill="none" xmlns="http://www.w3.org/2000/svg">
<path d="M5.22266 1.3125C5.05859 1.3125 4.89453 1.36719 4.75781 1.50391L1.50391 4.75781C1.36719 4.86719 1.3125 5.05859 1.3125 5.22266V8.75C1.3125 8.91406 1.36719 9.07812 1.50391 9.21484L0.574219 10.1445C0.191406 9.76172 0 9.26953 0 8.75V5.22266C0 4.70312 0.191406 4.21094 0.574219 3.82812L3.82812 0.574219C4.21094 0.191406 4.70312 0 5.22266 0H8.75C9.26953 0 9.76172 0.191406 10.1445 0.574219L13.3984 3.82812C13.7812 4.21094 13.9727 4.70312 13.9727 5.22266V8.75C13.9727 9.26953 13.7812 9.76172 13.3984 10.1445L10.1445 13.3984C9.76172 13.7812 9.26953 13.9727 8.75 13.9727H5.22266C4.70312 13.9727 4.21094 13.7812 3.82812 13.3984L0.574219 10.1445L1.50391 9.21484L4.75781 12.4688C4.89453 12.6055 5.05859 12.6602 5.22266 12.6602H8.75C8.91406 12.6602 9.10547 12.6055 9.21484 12.4688L12.4688 9.21484C12.6055 9.07812 12.6602 8.91406 12.6602 8.75V5.22266C12.6602 5.05859 12.6055 4.86719 12.4688 4.75781L9.21484 1.50391C9.10547 1.36719 8.91406 1.3125 8.75 1.3125H5.22266ZM7 3.47266C7.35547 3.47266 7.65625 3.77344 7.65625 4.12891V7.19141C7.65625 7.57422 7.35547 7.84766 7 7.84766C6.61719 7.84766 6.34375 7.57422 6.34375 7.19141V4.12891C6.34375 3.77344 6.61719 3.47266 7 3.47266ZM6.125 9.59766C6.125 9.13281 6.50781 8.72266 7 8.72266C7.46484 8.72266 7.875 9.13281 7.875 9.59766C7.875 10.0898 7.46484 10.4727 7 10.4727C6.50781 10.4727 6.125 10.0898 6.125 9.59766Z" fill="#BB2D3B" fill-opacity="0.5"/>
</svg>
