<svg width="15" height="15" viewBox="0 0 15 15" fill="none" xmlns="http://www.w3.org/2000/svg">
<path d="M1.03906 10.0078C1.14844 9.625 1.36719 9.26953 1.64062 8.99609L9.95312 0.683594C10.6367 0 11.7578 0 12.4414 0.683594L13.5078 1.75C13.5898 1.83203 13.6719 1.94141 13.7266 2.02344C14.1914 2.70703 14.1094 3.63672 13.5078 4.23828L5.19531 12.5508C5.16797 12.5781 5.11328 12.6055 5.08594 12.6602C4.8125 12.8789 4.51172 13.043 4.18359 13.1523L2.05078 13.7812L0.875 14.1367C0.65625 14.1914 0.410156 14.1367 0.246094 13.9453C0.0546875 13.7812 0 13.5352 0.0820312 13.3164L0.410156 12.1406L1.03906 10.0078ZM2.29688 10.3906L2.10547 11.0195L1.66797 12.5234L3.17188 12.0859L3.80078 11.8945C3.99219 11.8398 4.12891 11.7578 4.26562 11.6211L10.5273 5.35938L8.83203 3.66406L2.57031 9.92578C2.54297 9.92578 2.54297 9.95312 2.51562 9.98047C2.40625 10.0898 2.35156 10.2266 2.29688 10.3906Z" fill="#3E3C4C" fill-opacity="0.6"/>
</svg>
