<svg width="13" height="14" viewBox="0 0 13 14" fill="none" xmlns="http://www.w3.org/2000/svg">
<path d="M4.83984 1.3125C4.75781 1.3125 4.70312 1.36719 4.64844 1.42188L4.12891 2.1875H8.09375L7.57422 1.42188C7.54688 1.36719 7.46484 1.3125 7.38281 1.3125H4.83984ZM9.67969 2.1875H10.0352H11.375H11.5938C11.9492 2.1875 12.25 2.48828 12.25 2.84375C12.25 3.22656 11.9492 3.5 11.5938 3.5H11.2656L10.6094 12.3867C10.5273 13.3164 9.78906 14 8.85938 14H3.36328C2.43359 14 1.69531 13.3164 1.61328 12.3867L0.957031 3.5H0.65625C0.273438 3.5 0 3.22656 0 2.84375C0 2.48828 0.273438 2.1875 0.65625 2.1875H0.875H2.1875H2.54297L3.55469 0.683594C3.82812 0.273438 4.32031 0 4.83984 0H7.38281C7.90234 0 8.39453 0.273438 8.66797 0.683594L9.67969 2.1875ZM9.95312 3.5H2.26953L2.92578 12.3047C2.95312 12.5234 3.14453 12.6875 3.36328 12.6875H8.85938C9.07812 12.6875 9.26953 12.5234 9.29688 12.3047L9.95312 3.5Z" fill="#BB2D3B"/>
</svg>
