<svg width="13" height="15" viewBox="0 0 13 15" fill="none" xmlns="http://www.w3.org/2000/svg">
<path d="M8.3125 3.63672C8.3125 2.87109 7.875 2.16016 7.21875 1.75C6.53516 1.36719 5.6875 1.36719 5.03125 1.75C4.34766 2.16016 3.9375 2.87109 3.9375 3.63672C3.9375 4.42969 4.34766 5.14062 5.03125 5.55078C5.6875 5.93359 6.53516 5.93359 7.21875 5.55078C7.875 5.14062 8.3125 4.42969 8.3125 3.63672ZM2.625 3.63672C2.625 2.40625 3.28125 1.25781 4.375 0.628906C5.44141 0 6.78125 0 7.875 0.628906C8.94141 1.25781 9.625 2.40625 9.625 3.63672C9.625 4.89453 8.94141 6.04297 7.875 6.67188C6.78125 7.30078 5.44141 7.30078 4.375 6.67188C3.28125 6.04297 2.625 4.89453 2.625 3.63672ZM1.33984 12.8242H10.8828C10.6367 11.1016 9.16016 9.76172 7.35547 9.76172H4.86719C3.0625 9.76172 1.58594 11.1016 1.33984 12.8242ZM0 13.3438C0 10.6367 2.16016 8.44922 4.86719 8.44922H7.35547C10.0625 8.44922 12.25 10.6367 12.25 13.3438C12.25 13.7812 11.8672 14.1367 11.4297 14.1367H0.792969C0.355469 14.1367 0 13.7812 0 13.3438Z" fill="#3E3C4C"/>
</svg>
