<svg width="102" height="39" viewBox="0 0 102 39" fill="none" xmlns="http://www.w3.org/2000/svg">
<path d="M21.9286 8.28163H22.648V9.65284C23.376 9.66413 23.9459 9.86445 24.3578 10.2538C24.7754 10.6432 24.9842 11.2131 24.9842 11.9636C24.9842 12.3417 24.9277 12.6689 24.8149 12.9454C24.702 13.2219 24.5412 13.4533 24.3324 13.6395C24.1293 13.8201 23.8838 13.9583 23.596 14.0543C23.3082 14.1445 22.9922 14.1953 22.648 14.2066V15.6794H21.9286V14.2066C21.5844 14.1953 21.2684 14.1445 20.9806 14.0543C20.6984 13.9583 20.453 13.8201 20.2442 13.6395C20.041 13.4533 19.883 13.2219 19.7702 12.9454C19.6573 12.6689 19.6009 12.3417 19.6009 11.9636C19.6009 11.2074 19.8069 10.6375 20.2188 10.2538C20.6307 9.86445 21.2006 9.66413 21.9286 9.65284V8.28163ZM22.648 13.6056C23.1954 13.6 23.6017 13.4589 23.8669 13.1824C24.1321 12.9003 24.2647 12.4855 24.2647 11.9382C24.2647 11.3908 24.1265 10.9761 23.85 10.6939C23.5791 10.4118 23.1785 10.2707 22.648 10.2707V13.6056ZM21.9286 10.2707C21.3981 10.2707 20.9975 10.4118 20.7266 10.6939C20.4558 10.9761 20.3204 11.3908 20.3204 11.9382C20.3204 12.4855 20.453 12.9003 20.7182 13.1824C20.9834 13.4589 21.3869 13.6 21.9286 13.6056V10.2707ZM25.794 12.1921C25.8109 12.3896 25.8504 12.573 25.9125 12.7423C25.9802 12.9059 26.0705 13.0498 26.1834 13.174C26.2962 13.2981 26.4345 13.3969 26.5981 13.4702C26.7674 13.5379 26.9621 13.5718 27.1822 13.5718C27.2894 13.5718 27.3994 13.5633 27.5123 13.5464C27.6308 13.5238 27.7408 13.49 27.8424 13.4448C27.9439 13.394 28.0342 13.3291 28.1132 13.2501C28.1922 13.1711 28.2515 13.0752 28.291 12.9624H29.0274C28.9766 13.1768 28.8891 13.363 28.765 13.521C28.6465 13.679 28.5026 13.8088 28.3333 13.9104C28.1697 14.0119 27.9863 14.0881 27.7831 14.1389C27.58 14.184 27.374 14.2066 27.1652 14.2066C26.8097 14.2066 26.4994 14.1502 26.2342 14.0373C25.9746 13.9245 25.7573 13.7693 25.5824 13.5718C25.4075 13.3686 25.2777 13.1288 25.1931 12.8523C25.1084 12.5702 25.0661 12.2627 25.0661 11.9297C25.0661 11.5968 25.1112 11.2921 25.2015 11.0156C25.2975 10.7334 25.4329 10.4908 25.6078 10.2877C25.7827 10.0845 25.9972 9.92652 26.2511 9.81366C26.505 9.70081 26.8069 9.64438 27.1568 9.64438C27.5123 9.64438 27.8198 9.71491 28.0794 9.85598C28.3389 9.99706 28.5477 10.1833 28.7057 10.4146C28.8637 10.6403 28.9738 10.8858 29.0358 11.151C29.1035 11.4162 29.1318 11.6617 29.1205 11.8874C29.1205 11.9382 29.1176 11.989 29.112 12.0398C29.112 12.0905 29.1092 12.1413 29.1035 12.1921H25.794ZM28.3925 11.5658C28.3813 11.1877 28.2628 10.8802 28.037 10.6432C27.8113 10.4062 27.5094 10.2877 27.1314 10.2877C26.9226 10.2877 26.7392 10.3215 26.5812 10.3892C26.4232 10.4569 26.2906 10.5501 26.1834 10.6686C26.0762 10.7871 25.9915 10.9253 25.9294 11.0833C25.8674 11.2357 25.8279 11.3965 25.8109 11.5658H28.3925ZM30.1298 15.764H29.4103V9.69516H30.0959L30.1298 10.3808C30.2821 10.1381 30.4881 9.95756 30.7477 9.83906C31.0129 9.71491 31.2978 9.65002 31.6025 9.64438C31.9468 9.64438 32.2374 9.70363 32.4744 9.82213C32.717 9.93498 32.9173 10.0958 33.0753 10.3046C33.239 10.5077 33.3603 10.7504 33.4393 11.0325C33.5183 11.309 33.5578 11.6081 33.5578 11.9297C33.5578 12.257 33.5183 12.5589 33.4393 12.8354C33.3603 13.1119 33.239 13.3517 33.0753 13.5549C32.9117 13.758 32.7057 13.9188 32.4574 14.0373C32.2091 14.1502 31.9129 14.2066 31.5687 14.2066C31.2301 14.2066 30.9423 14.153 30.7053 14.0458C30.4683 13.9386 30.2765 13.7975 30.1298 13.6226V15.764ZM31.5094 13.5718C31.7521 13.5718 31.9552 13.5295 32.1189 13.4448C32.2881 13.3545 32.4236 13.236 32.5251 13.0893C32.6324 12.937 32.7085 12.762 32.7537 12.5645C32.8045 12.367 32.8327 12.1554 32.8383 11.9297C32.8383 11.704 32.8129 11.4924 32.7621 11.2949C32.717 11.0918 32.6408 10.9168 32.5336 10.7701C32.4264 10.6234 32.2853 10.5077 32.1104 10.4231C31.9411 10.3328 31.7352 10.2877 31.4925 10.2877C31.2047 10.2877 30.9564 10.3667 30.7477 10.5247C30.5389 10.677 30.3809 10.8717 30.2737 11.1087C30.2116 11.2385 30.1693 11.3739 30.1467 11.515C30.1241 11.6504 30.1128 11.7915 30.1128 11.9382C30.1128 12.1075 30.1241 12.2655 30.1467 12.4122C30.1693 12.5533 30.2116 12.6887 30.2737 12.8185C30.3809 13.0329 30.536 13.2135 30.7392 13.3602C30.948 13.5013 31.2047 13.5718 31.5094 13.5718ZM33.8084 9.69516H34.7733L36.2207 11.9297L37.6427 9.69516H38.5907V14.1558H37.8797V10.4908L36.3054 13.0131H36.1022L34.5194 10.4908V14.1558H33.8084V9.69516ZM39.6083 12.1921C39.6252 12.3896 39.6647 12.573 39.7268 12.7423C39.7945 12.9059 39.8848 13.0498 39.9976 13.174C40.1105 13.2981 40.2487 13.3969 40.4124 13.4702C40.5817 13.5379 40.7763 13.5718 40.9964 13.5718C41.1036 13.5718 41.2137 13.5633 41.3265 13.5464C41.445 13.5238 41.555 13.49 41.6566 13.4448C41.7582 13.394 41.8485 13.3291 41.9275 13.2501C42.0065 13.1711 42.0657 13.0752 42.1052 12.9624H42.8416C42.7908 13.1768 42.7034 13.363 42.5792 13.521C42.4607 13.679 42.3168 13.8088 42.1475 13.9104C41.9839 14.0119 41.8005 14.0881 41.5974 14.1389C41.3942 14.184 41.1883 14.2066 40.9795 14.2066C40.624 14.2066 40.3136 14.1502 40.0484 14.0373C39.7888 13.9245 39.5716 13.7693 39.3967 13.5718C39.2217 13.3686 39.092 13.1288 39.0073 12.8523C38.9227 12.5702 38.8803 12.2627 38.8803 11.9297C38.8803 11.5968 38.9255 11.2921 39.0158 11.0156C39.1117 10.7334 39.2471 10.4908 39.4221 10.2877C39.597 10.0845 39.8114 9.92652 40.0653 9.81366C40.3193 9.70081 40.6212 9.64438 40.971 9.64438C41.3265 9.64438 41.634 9.71491 41.8936 9.85598C42.1532 9.99706 42.362 10.1833 42.52 10.4146C42.678 10.6403 42.788 10.8858 42.8501 11.151C42.9178 11.4162 42.946 11.6617 42.9347 11.8874C42.9347 11.9382 42.9319 11.989 42.9263 12.0398C42.9263 12.0905 42.9234 12.1413 42.9178 12.1921H39.6083ZM42.2068 11.5658C42.1955 11.1877 42.077 10.8802 41.8513 10.6432C41.6256 10.4062 41.3237 10.2877 40.9456 10.2877C40.7368 10.2877 40.5534 10.3215 40.3954 10.3892C40.2374 10.4569 40.1048 10.5501 39.9976 10.6686C39.8904 10.7871 39.8058 10.9253 39.7437 11.0833C39.6816 11.2357 39.6421 11.3965 39.6252 11.5658H42.2068ZM43.944 15.764H43.2246V9.69516H43.9102L43.944 10.3808C44.0964 10.1381 44.3023 9.95756 44.5619 9.83906C44.8271 9.71491 45.1121 9.65002 45.4168 9.64438C45.761 9.64438 46.0516 9.70363 46.2886 9.82213C46.5313 9.93498 46.7316 10.0958 46.8896 10.3046C47.0532 10.5077 47.1745 10.7504 47.2535 11.0325C47.3325 11.309 47.372 11.6081 47.372 11.9297C47.372 12.257 47.3325 12.5589 47.2535 12.8354C47.1745 13.1119 47.0532 13.3517 46.8896 13.5549C46.7259 13.758 46.52 13.9188 46.2717 14.0373C46.0234 14.1502 45.7271 14.2066 45.3829 14.2066C45.0444 14.2066 44.7566 14.153 44.5196 14.0458C44.2826 13.9386 44.0907 13.7975 43.944 13.6226V15.764ZM45.3237 13.5718C45.5663 13.5718 45.7695 13.5295 45.9331 13.4448C46.1024 13.3545 46.2378 13.236 46.3394 13.0893C46.4466 12.937 46.5228 12.762 46.5679 12.5645C46.6187 12.367 46.6469 12.1554 46.6526 11.9297C46.6526 11.704 46.6272 11.4924 46.5764 11.2949C46.5313 11.0918 46.4551 10.9168 46.3479 10.7701C46.2406 10.6234 46.0996 10.5077 45.9246 10.4231C45.7554 10.3328 45.5494 10.2877 45.3068 10.2877C45.019 10.2877 44.7707 10.3667 44.5619 10.5247C44.3531 10.677 44.1951 10.8717 44.0879 11.1087C44.0258 11.2385 43.9835 11.3739 43.9609 11.515C43.9384 11.6504 43.9271 11.7915 43.9271 11.9382C43.9271 12.1075 43.9384 12.2655 43.9609 12.4122C43.9835 12.5533 44.0258 12.6887 44.0879 12.8185C44.1951 13.0329 44.3503 13.2135 44.5534 13.3602C44.7622 13.5013 45.019 13.5718 45.3237 13.5718ZM49.6098 14.2066C49.2543 14.2066 48.9467 14.1502 48.6872 14.0373C48.4276 13.9245 48.2132 13.7665 48.0439 13.5633C47.8746 13.3602 47.7476 13.1204 47.663 12.8439C47.5784 12.5674 47.536 12.2655 47.536 11.9382C47.536 11.6222 47.5812 11.3259 47.6715 11.0494C47.7617 10.7673 47.8943 10.5247 48.0693 10.3215C48.2442 10.1127 48.4643 9.94909 48.7295 9.83059C48.9947 9.70645 49.3163 9.64438 49.6944 9.64438C49.9201 9.64438 50.1204 9.66977 50.2954 9.72056C50.4703 9.7657 50.6339 9.84188 50.7863 9.94909C50.9443 10.0507 51.0797 10.1861 51.1926 10.3554C51.3054 10.5247 51.3873 10.7306 51.438 10.9733H50.7017C50.617 10.725 50.4816 10.5472 50.2954 10.44C50.1148 10.3328 49.9004 10.282 49.6521 10.2877C49.4095 10.2877 49.195 10.3356 49.0088 10.4316C48.8282 10.5218 48.6815 10.6432 48.5687 10.7955C48.4615 10.9479 48.3825 11.1256 48.3317 11.3288C48.2809 11.5263 48.2555 11.7294 48.2555 11.9382C48.2555 12.1583 48.2809 12.367 48.3317 12.5645C48.3881 12.762 48.4699 12.937 48.5771 13.0893C48.69 13.236 48.8339 13.3545 49.0088 13.4448C49.1837 13.5295 49.3925 13.5718 49.6352 13.5718C49.7537 13.5718 49.8693 13.5605 49.9822 13.5379C50.1007 13.5154 50.2079 13.4787 50.3038 13.4279C50.4054 13.3715 50.4929 13.2981 50.5662 13.2078C50.6396 13.1175 50.6932 13.0075 50.7271 12.8777H51.4719C51.4268 13.1091 51.3449 13.3094 51.2264 13.4787C51.1136 13.6423 50.9725 13.7806 50.8032 13.8934C50.6339 14.0006 50.4477 14.0796 50.2446 14.1304C50.0414 14.1812 49.8298 14.2066 49.6098 14.2066ZM51.7067 14.1558V9.69516H52.4261V11.6165H53.2048L54.5253 9.69516H55.3463L53.8566 11.8197L55.4732 14.1558H54.6268L53.2895 12.2429H52.4261V14.1558H51.7067ZM56.1212 14.1558H55.4187V9.69516H56.1382V13.1147C56.1777 13.0357 56.2313 12.9511 56.299 12.8608C56.3667 12.7649 56.4203 12.6915 56.4598 12.6407L58.6182 9.69516H59.3292V14.1558H58.6097V10.7363C58.5646 10.8209 58.5138 10.9027 58.4574 10.9817C58.4066 11.0551 58.3586 11.12 58.3135 11.1764L56.1212 14.1558ZM61.8067 8.55249C62.0437 8.55249 62.2327 8.50735 62.3738 8.41706C62.5205 8.32678 62.5939 8.16878 62.5939 7.94306H63.2541C63.2428 8.34935 63.1074 8.6456 62.8478 8.83181C62.5939 9.01802 62.244 9.11113 61.7982 9.11113C61.3524 9.11113 61.0026 9.01802 60.7487 8.83181C60.5004 8.6456 60.3706 8.34935 60.3593 7.94306H61.0195C61.0252 8.16878 61.0985 8.32678 61.2396 8.41706C61.3807 8.50735 61.5697 8.55249 61.8067 8.55249ZM60.4863 14.1558H59.7837V9.69516H60.5032V13.1147C60.5427 13.0357 60.5963 12.9511 60.664 12.8608C60.7317 12.7649 60.7853 12.6915 60.8248 12.6407L62.9832 9.69516H63.6942V14.1558H62.9748V10.7363C62.9296 10.8209 62.8788 10.9027 62.8224 10.9817C62.7716 11.0551 62.7236 11.12 62.6785 11.1764L60.4863 14.1558Z" fill="#3E3C4C"/>
<path d="M2.43155 30V8.23919H18.0365V11.748H6.27893V16.8573H11.0497C12.1167 16.8573 13.1324 16.9394 14.0968 17.1036C15.0818 17.2677 15.9538 17.5755 16.713 18.0269C17.4723 18.4578 18.0673 19.0734 18.4982 19.8737C18.9291 20.6739 19.1446 21.7204 19.1446 23.0131C19.1446 24.3674 18.9086 25.496 18.4367 26.3988C17.9852 27.3017 17.3491 28.0199 16.5284 28.5534C15.7281 29.0664 14.8047 29.4357 13.7582 29.6614C12.7323 29.8871 11.655 30 10.5264 30H2.43155ZM6.27893 26.4912H10.4649C11.0599 26.4912 11.6448 26.4501 12.2193 26.3681C12.7938 26.286 13.3171 26.1321 13.789 25.9064C14.261 25.6807 14.6303 25.3524 14.8971 24.9215C15.1843 24.4905 15.328 23.9263 15.328 23.2286C15.328 22.5515 15.1946 22.0077 14.9279 21.5973C14.6816 21.1869 14.3328 20.8894 13.8814 20.7047C13.4505 20.4995 12.958 20.3661 12.404 20.3046C11.8499 20.243 11.2651 20.2123 10.6496 20.2123H6.27893V26.4912ZM23.275 30.1616C22.7364 30.1616 22.2131 30.0846 21.7053 29.9307C21.2128 29.7769 20.7665 29.5537 20.3664 29.2613C19.9662 28.9535 19.6508 28.5765 19.4199 28.1302C19.1891 27.6685 19.0737 27.1299 19.0737 26.5143C19.0737 25.7294 19.2275 25.0907 19.5353 24.5983C19.8431 24.0904 20.2586 23.7057 20.7819 23.4441C21.3205 23.1824 21.9284 23.0055 22.6056 22.9131C23.2827 22.8054 23.9906 22.7515 24.7293 22.7515H27.107C27.107 22.2129 27.0224 21.7512 26.8531 21.3665C26.6838 20.9663 26.4145 20.6509 26.0451 20.42C25.6912 20.1892 25.2295 20.0737 24.6601 20.0737C24.2907 20.0737 23.9444 20.1199 23.6213 20.2123C23.3135 20.2892 23.0442 20.42 22.8133 20.6047C22.5979 20.774 22.444 20.9971 22.3516 21.2741H19.4661C19.5738 20.6432 19.7893 20.1045 20.1124 19.6582C20.451 19.1965 20.8588 18.8195 21.3359 18.5271C21.8284 18.2347 22.367 18.0192 22.9518 17.8807C23.5366 17.7268 24.1291 17.6499 24.7293 17.6499C25.9143 17.6499 26.8761 17.8807 27.6148 18.3424C28.3689 18.8041 28.923 19.4659 29.2769 20.3277C29.6309 21.1895 29.8079 22.2283 29.8079 23.4441V30H27.3148L27.2455 28.5226C26.9069 28.9535 26.5145 29.2921 26.0682 29.5383C25.6373 29.7692 25.1833 29.9307 24.7062 30.0231C24.2291 30.1154 23.7521 30.1616 23.275 30.1616ZM23.9214 27.8762C24.5523 27.8762 25.1064 27.7608 25.5834 27.53C26.0605 27.2991 26.4375 26.976 26.7146 26.5604C26.9916 26.1449 27.1301 25.6601 27.1301 25.1061V24.7368H24.9371C24.5369 24.7368 24.1522 24.7522 23.7829 24.7829C23.4135 24.7983 23.0826 24.8599 22.7902 24.9676C22.5132 25.06 22.2901 25.2062 22.1208 25.4062C21.9515 25.6063 21.8669 25.891 21.8669 26.2603C21.8669 26.6143 21.9592 26.9144 22.1439 27.1606C22.3285 27.3915 22.5748 27.5685 22.8826 27.6916C23.2057 27.8147 23.552 27.8762 23.9214 27.8762ZM35.4745 30.1616C34.8435 30.1616 34.2126 30.1 33.5816 29.9769C32.966 29.8384 32.3889 29.623 31.8503 29.3306C31.327 29.0228 30.8961 28.6226 30.5576 28.1302C30.219 27.6377 30.0189 27.0298 29.9574 26.3065H32.7044C32.7506 26.6451 32.9198 26.9221 33.2123 27.1375C33.52 27.353 33.874 27.5146 34.2741 27.6223C34.6896 27.7147 35.0744 27.7608 35.4283 27.7608C35.8131 27.7608 36.1901 27.7223 36.5595 27.6454C36.9288 27.5531 37.2366 27.3992 37.4828 27.1837C37.7445 26.9529 37.8753 26.6374 37.8753 26.2373C37.8753 25.8679 37.7829 25.5909 37.5983 25.4062C37.429 25.2215 37.1904 25.0984 36.8827 25.0369C36.5903 24.9599 36.2517 24.9215 35.8669 24.9215H33.7432V22.7746H35.4283C35.7207 22.7746 35.9901 22.7515 36.2363 22.7054C36.4825 22.6592 36.698 22.5822 36.8827 22.4745C37.0827 22.3668 37.2366 22.2283 37.3443 22.059C37.4521 21.8743 37.5059 21.6589 37.5059 21.4126C37.5059 21.0587 37.4059 20.7894 37.2058 20.6047C37.0058 20.4046 36.7442 20.2661 36.421 20.1892C36.0978 20.0968 35.7669 20.0507 35.4283 20.0507C35.059 20.0507 34.6896 20.0891 34.3203 20.1661C33.9663 20.243 33.6585 20.3815 33.3969 20.5816C33.1507 20.7817 32.9968 21.0587 32.9352 21.4126H30.2344C30.3267 20.4585 30.6345 19.7121 31.1577 19.1735C31.681 18.6194 32.3274 18.227 33.0968 17.9962C33.8663 17.7653 34.6435 17.6499 35.4283 17.6499C35.9824 17.6499 36.5364 17.7038 37.0904 17.8115C37.6598 17.9192 38.1754 18.1039 38.6371 18.3655C39.0988 18.6271 39.4681 18.9734 39.7451 19.4043C40.0221 19.8352 40.1606 20.3738 40.1606 21.0202C40.1606 21.5281 40.0529 21.9974 39.8374 22.4283C39.622 22.8439 39.2834 23.1747 38.8217 23.421C39.4681 23.6672 39.9298 24.0442 40.2068 24.5521C40.4838 25.06 40.6223 25.6448 40.6223 26.3065C40.6223 26.999 40.4684 27.5915 40.1606 28.084C39.8682 28.5765 39.4681 28.9766 38.9602 29.2844C38.4678 29.5922 37.9138 29.8153 37.2982 29.9538C36.698 30.0923 36.0901 30.1616 35.4745 30.1616ZM44.7398 30.1616C44.2012 30.1616 43.6779 30.0846 43.1701 29.9307C42.6776 29.7769 42.2313 29.5537 41.8312 29.2613C41.431 28.9535 41.1156 28.5765 40.8847 28.1302C40.6539 27.6685 40.5385 27.1299 40.5385 26.5143C40.5385 25.7294 40.6923 25.0907 41.0001 24.5983C41.3079 24.0904 41.7234 23.7057 42.2467 23.4441C42.7853 23.1824 43.3932 23.0055 44.0704 22.9131C44.7475 22.8054 45.4554 22.7515 46.1941 22.7515H48.5718C48.5718 22.2129 48.4872 21.7512 48.3179 21.3665C48.1486 20.9663 47.8793 20.6509 47.5099 20.42C47.156 20.1892 46.6943 20.0737 46.1249 20.0737C45.7555 20.0737 45.4092 20.1199 45.0861 20.2123C44.7783 20.2892 44.509 20.42 44.2781 20.6047C44.0627 20.774 43.9088 20.9971 43.8164 21.2741H40.9309C41.0386 20.6432 41.2541 20.1045 41.5772 19.6582C41.9158 19.1965 42.3236 18.8195 42.8007 18.5271C43.2932 18.2347 43.8318 18.0192 44.4166 17.8807C45.0014 17.7268 45.5939 17.6499 46.1941 17.6499C47.3791 17.6499 48.3409 17.8807 49.0796 18.3424C49.8337 18.8041 50.3878 19.4659 50.7417 20.3277C51.0957 21.1895 51.2727 22.2283 51.2727 23.4441V30H48.7796L48.7103 28.5226C48.3717 28.9535 47.9793 29.2921 47.533 29.5383C47.1021 29.7692 46.6481 29.9307 46.171 30.0231C45.6939 30.1154 45.2169 30.1616 44.7398 30.1616ZM45.3862 27.8762C46.0171 27.8762 46.5712 27.7608 47.0482 27.53C47.5253 27.2991 47.9023 26.976 48.1794 26.5604C48.4564 26.1449 48.5949 25.6601 48.5949 25.1061V24.7368H46.4019C46.0017 24.7368 45.617 24.7522 45.2477 24.7829C44.8783 24.7983 44.5474 24.8599 44.255 24.9676C43.978 25.06 43.7549 25.2062 43.5856 25.4062C43.4163 25.6063 43.3317 25.891 43.3317 26.2603C43.3317 26.6143 43.424 26.9144 43.6087 27.1606C43.7933 27.3915 44.0396 27.5685 44.3474 27.6916C44.6705 27.8147 45.0168 27.8762 45.3862 27.8762ZM52.1147 34.4784V17.8346H54.7463L54.8848 19.4966C55.3619 18.8503 55.9467 18.3809 56.6392 18.0885C57.3317 17.7961 58.0628 17.6499 58.8322 17.6499C60.0018 17.6499 60.9791 17.9269 61.7639 18.4809C62.5488 19.035 63.1336 19.789 63.5183 20.7432C63.9031 21.682 64.0955 22.7438 64.0955 23.9288C64.0955 25.1138 63.8954 26.1757 63.4953 27.1145C63.1105 28.0532 62.5103 28.7996 61.6947 29.3536C60.8944 29.8923 59.8633 30.1616 58.6014 30.1616C58.0166 30.1616 57.4933 30.1 57.0317 29.9769C56.57 29.8384 56.1621 29.6614 55.8082 29.446C55.4696 29.2151 55.1772 28.9689 54.931 28.7073V34.4784H52.1147ZM58.209 27.6223C58.9938 27.6223 59.6094 27.453 60.0557 27.1145C60.502 26.7605 60.8252 26.3065 61.0252 25.7525C61.2253 25.1831 61.3253 24.5829 61.3253 23.9519C61.3253 23.2902 61.2176 22.6746 61.0022 22.1052C60.8021 21.5358 60.4712 21.0741 60.0095 20.7201C59.5478 20.3661 58.9323 20.1892 58.1628 20.1892C57.4549 20.1892 56.8547 20.3661 56.3622 20.7201C55.8851 21.0587 55.5235 21.5127 55.2772 22.0821C55.031 22.6515 54.9079 23.2671 54.9079 23.9288C54.9079 24.606 55.0233 25.2292 55.2542 25.7987C55.485 26.3527 55.8467 26.799 56.3391 27.1375C56.8316 27.4607 57.4549 27.6223 58.209 27.6223Z" fill="#3E3C4C"/>
<path d="M68.748 14.5399V16.8243V18.6518V19.0516C68.748 20.8791 67.2632 22.3069 65.4356 22.3069C64.9788 22.3069 64.6361 21.9642 64.6361 21.5073V20.4793C64.6361 19.3372 65.1501 18.3092 66.0067 17.6239V14.5399C66.0067 10.7707 69.0335 7.68679 72.8599 7.68679H75.1443H79.2562H89.3075C91.4776 7.68679 93.4765 8.71476 94.7329 10.3709L97.5312 13.9117V13.6262C97.5312 12.8838 98.1023 12.2556 98.9019 12.2556C99.6443 12.2556 100.273 12.8838 100.273 13.6262V17.5096L100.501 17.7952C100.901 18.3663 101.186 19.0516 101.186 19.7369V25.6192C101.186 27.8465 99.3588 29.6169 97.1315 29.6169C95.7609 29.6169 94.5044 28.9316 93.762 27.7894L91.3063 23.963C91.1921 23.7346 91.135 23.5062 91.135 23.2206V20.5936L90.2212 19.5656V26.8756C90.2212 28.4176 88.9648 29.6169 87.48 29.6169H85.6524C84.1105 29.6169 82.9112 28.4176 82.9112 26.8756V25.6763C82.7399 25.7334 82.5685 25.7334 82.4543 25.7905V26.4187C82.4543 26.9327 81.9974 27.3325 81.5406 27.3325C81.0266 27.3325 80.6268 26.9327 80.6268 26.4187V25.9619C80.4555 25.9619 80.2841 25.9619 80.1699 25.9619C79.9986 25.9619 79.8273 25.9619 79.713 25.9619V26.4187C79.713 26.9327 79.2562 27.3325 78.7993 27.3325C78.2853 27.3325 77.8855 26.9327 77.8855 26.4187V25.7905C77.7142 25.7334 77.5429 25.7334 77.4287 25.6763V26.8756C77.4287 28.4176 76.1723 29.6169 74.6874 29.6169H72.8599C71.3179 29.6169 70.1186 28.4176 70.1186 26.8756V12.7124C70.1186 12.2556 70.1757 11.7987 70.29 11.3418C69.3191 12.0842 68.748 13.2264 68.748 14.5399ZM73.945 10.7707C73.2597 11.1705 72.8599 11.9129 72.8599 12.7124V26.8756H74.6874V24.1344V23.6775V23.2206C74.6874 20.1938 77.1431 17.7381 80.1699 17.7381C83.1967 17.7381 85.6524 20.1938 85.6524 23.2206V23.6775V24.1344V26.8756H87.48V15.9106C87.48 15.3395 87.8226 14.8826 88.3366 14.6542C88.8506 14.4828 89.4788 14.5971 89.8215 15.0539L93.4765 19.1658C93.7049 19.3943 93.8762 19.7369 93.8762 20.0225V22.8208L96.0464 26.3045C96.2748 26.7043 96.6746 26.8756 97.1315 26.8756C97.8168 26.8756 98.445 26.3045 98.445 25.6192V19.7369C98.445 19.6798 98.3879 19.5656 98.3308 19.4514L92.5627 12.0842C91.8203 11.0563 90.621 10.4852 89.3075 10.4852H86.452C86.2807 11.2847 85.8809 12.0271 85.2527 12.6553L84.7958 13.1122C83.5965 14.3115 81.8832 14.9968 80.1699 14.9968C78.3995 14.9968 76.6862 14.3115 75.4869 13.1122L75.0301 12.6553C74.5161 12.1413 74.1163 11.5131 73.945 10.7707ZM77.4858 22.8779C78.0569 23.0493 78.9135 23.2777 80.1699 23.2777C81.3692 23.2777 82.2259 23.0493 82.797 22.8779L82.8541 22.8208C82.6827 21.5073 81.5406 20.4793 80.1699 20.4793C78.7422 20.4793 77.6571 21.5073 77.4287 22.8208L77.4858 22.8779ZM97.5312 22.3069C97.5312 22.8208 97.0744 23.2206 96.6175 23.2206C96.1035 23.2206 95.7037 22.8208 95.7037 22.3069C95.7037 21.85 96.1035 21.3931 96.6175 21.3931C97.0744 21.3931 97.5312 21.85 97.5312 22.3069Z" fill="#3E3C4C"/>
</svg>
