<svg width="273" height="106" viewBox="0 0 273 106" fill="none" xmlns="http://www.w3.org/2000/svg">
<path d="M58.9552 22.7572H60.8895V26.4437C62.8466 26.4741 64.3788 27.0126 65.4863 28.0594C66.6089 29.1062 67.1702 30.6385 67.1702 32.6562C67.1702 33.6726 67.0185 34.5525 66.7151 35.2959C66.4117 36.0393 65.9793 36.6613 65.418 37.1619C64.8719 37.6474 64.2119 38.0191 63.4382 38.277C62.6645 38.5197 61.8149 38.6562 60.8895 38.6866V42.6462H58.9552V38.6866C58.0298 38.6562 57.1802 38.5197 56.4065 38.277C55.648 38.0191 54.9881 37.6474 54.4267 37.1619C53.8806 36.6613 53.4558 36.0393 53.1524 35.2959C52.849 34.5525 52.6973 33.6726 52.6973 32.6562C52.6973 30.6233 53.251 29.091 54.3585 28.0594C55.4659 27.0126 56.9982 26.4741 58.9552 26.4437V22.7572ZM60.8895 37.0709C62.3611 37.0557 63.4534 36.6765 64.1664 35.9331C64.8794 35.1745 65.236 34.0595 65.236 32.5879C65.236 31.1163 64.8643 30.0013 64.1209 29.2427C63.3927 28.4842 62.3156 28.1049 60.8895 28.1049V37.0709ZM58.9552 28.1049C57.5292 28.1049 56.452 28.4842 55.7238 29.2427C54.9956 30.0013 54.6315 31.1163 54.6315 32.5879C54.6315 34.0595 54.9881 35.1745 55.7011 35.9331C56.4141 36.6765 57.4988 37.0557 58.9552 37.0709V28.1049ZM69.3475 33.2706C69.3931 33.8016 69.4993 34.2946 69.6661 34.7498C69.8482 35.1897 70.0909 35.5766 70.3943 35.9103C70.6977 36.2441 71.0694 36.5096 71.5094 36.7068C71.9645 36.8888 72.4879 36.9799 73.0796 36.9799C73.3678 36.9799 73.6636 36.9571 73.9671 36.9116C74.2856 36.8509 74.5815 36.7599 74.8546 36.6385C75.1276 36.502 75.3704 36.3275 75.5828 36.1151C75.7951 35.9027 75.9544 35.6448 76.0606 35.3414H78.0404C77.9039 35.9179 77.6687 36.4185 77.335 36.8433C77.0164 37.2681 76.6295 37.617 76.1744 37.8901C75.7345 38.1632 75.2414 38.368 74.6953 38.5045C74.1491 38.6259 73.5954 38.6866 73.0341 38.6866C72.0783 38.6866 71.2439 38.5349 70.5309 38.2315C69.833 37.928 69.2489 37.5108 68.7786 36.9799C68.3083 36.4337 67.9594 35.789 67.7319 35.0456C67.5043 34.287 67.3905 33.4602 67.3905 32.5652C67.3905 31.6701 67.5119 30.8509 67.7546 30.1075C68.0125 29.3489 68.3766 28.6966 68.8469 28.1504C69.3172 27.6043 69.8937 27.1795 70.5764 26.8761C71.2591 26.5727 72.0707 26.421 73.0113 26.421C73.9671 26.421 74.7939 26.6106 75.4917 26.9899C76.1896 27.3692 76.7509 27.8698 77.1757 28.4918C77.6005 29.0986 77.8963 29.7586 78.0632 30.4716C78.2452 31.1846 78.3211 31.8445 78.2907 32.4514C78.2907 32.5879 78.2832 32.7245 78.268 32.861C78.268 32.9975 78.2604 33.1341 78.2452 33.2706H69.3475ZM76.3337 31.5866C76.3034 30.5702 75.9848 29.7434 75.3779 29.1062C74.7711 28.469 73.9595 28.1504 72.943 28.1504C72.3817 28.1504 71.8887 28.2415 71.4639 28.4235C71.0391 28.6056 70.6826 28.8559 70.3943 29.1745C70.1061 29.4931 69.8785 29.8648 69.7116 30.2895C69.5448 30.6991 69.4386 31.1315 69.3931 31.5866H76.3337ZM81.0042 42.8737H79.07V26.5575H80.9132L81.0042 28.4008C81.4139 27.7484 81.9676 27.263 82.6655 26.9444C83.3785 26.6106 84.1446 26.4361 84.9638 26.421C85.8893 26.421 86.6706 26.5803 87.3077 26.8989C87.9601 27.2023 88.4986 27.6346 88.9234 28.196C89.3634 28.7421 89.6895 29.3945 89.9019 30.153C90.1143 30.8964 90.2205 31.7004 90.2205 32.5652C90.2205 33.4451 90.1143 34.2567 89.9019 35.0001C89.6895 35.7434 89.3634 36.3882 88.9234 36.9344C88.4835 37.4805 87.9297 37.9129 87.2622 38.2315C86.5947 38.5349 85.7982 38.6866 84.8728 38.6866C83.9626 38.6866 83.1888 38.5425 82.5517 38.2542C81.9145 37.966 81.3987 37.5867 81.0042 37.1164V42.8737ZM84.7135 36.9799C85.3659 36.9799 85.912 36.8661 86.352 36.6385C86.8071 36.3958 87.1712 36.0772 87.4443 35.6828C87.7325 35.2732 87.9373 34.8029 88.0587 34.2719C88.1952 33.7409 88.2711 33.172 88.2862 32.5652C88.2862 31.9583 88.218 31.3894 88.0814 30.8584C87.9601 30.3123 87.7553 29.842 87.467 29.4476C87.1788 29.0531 86.7995 28.7421 86.3292 28.5145C85.8741 28.2718 85.3203 28.1504 84.668 28.1504C83.8943 28.1504 83.2268 28.3628 82.6655 28.7876C82.1041 29.1972 81.6794 29.7206 81.3911 30.3578C81.2242 30.7067 81.1104 31.0708 81.0498 31.4501C80.9891 31.8142 80.9587 32.1935 80.9587 32.5879C80.9587 33.043 80.9891 33.4678 81.0498 33.8623C81.1104 34.2415 81.2242 34.6056 81.3911 34.9546C81.6794 35.5311 82.0965 36.0165 82.6427 36.411C83.204 36.7902 83.8943 36.9799 84.7135 36.9799ZM90.8943 26.5575H93.4885L97.3799 32.5652L101.203 26.5575H103.752V38.55H101.84V28.6966L97.6074 35.478H97.0613L92.8058 28.6966V38.55H90.8943V26.5575ZM106.487 33.2706C106.533 33.8016 106.639 34.2946 106.806 34.7498C106.988 35.1897 107.231 35.5766 107.534 35.9103C107.838 36.2441 108.209 36.5096 108.649 36.7068C109.104 36.8888 109.628 36.9799 110.219 36.9799C110.508 36.9799 110.803 36.9571 111.107 36.9116C111.425 36.8509 111.721 36.7599 111.994 36.6385C112.267 36.502 112.51 36.3275 112.723 36.1151C112.935 35.9027 113.094 35.6448 113.2 35.3414H115.18C115.044 35.9179 114.809 36.4185 114.475 36.8433C114.156 37.2681 113.769 37.617 113.314 37.8901C112.874 38.1632 112.381 38.368 111.835 38.5045C111.289 38.6259 110.735 38.6866 110.174 38.6866C109.218 38.6866 108.384 38.5349 107.671 38.2315C106.973 37.928 106.389 37.5108 105.918 36.9799C105.448 36.4337 105.099 35.789 104.872 35.0456C104.644 34.287 104.53 33.4602 104.53 32.5652C104.53 31.6701 104.652 30.8509 104.894 30.1075C105.152 29.3489 105.516 28.6966 105.987 28.1504C106.457 27.6043 107.033 27.1795 107.716 26.8761C108.399 26.5727 109.21 26.421 110.151 26.421C111.107 26.421 111.934 26.6106 112.632 26.9899C113.329 27.3692 113.891 27.8698 114.315 28.4918C114.74 29.0986 115.036 29.7586 115.203 30.4716C115.385 31.1846 115.461 31.8445 115.431 32.4514C115.431 32.5879 115.423 32.7245 115.408 32.861C115.408 32.9975 115.4 33.1341 115.385 33.2706H106.487ZM113.473 31.5866C113.443 30.5702 113.125 29.7434 112.518 29.1062C111.911 28.469 111.099 28.1504 110.083 28.1504C109.521 28.1504 109.028 28.2415 108.604 28.4235C108.179 28.6056 107.822 28.8559 107.534 29.1745C107.246 29.4931 107.018 29.8648 106.851 30.2895C106.685 30.6991 106.578 31.1315 106.533 31.5866H113.473ZM118.144 42.8737H116.21V26.5575H118.053L118.144 28.4008C118.554 27.7484 119.107 27.263 119.805 26.9444C120.518 26.6106 121.284 26.4361 122.104 26.421C123.029 26.421 123.81 26.5803 124.448 26.8989C125.1 27.2023 125.638 27.6346 126.063 28.196C126.503 28.7421 126.829 29.3945 127.042 30.153C127.254 30.8964 127.36 31.7004 127.36 32.5652C127.36 33.4451 127.254 34.2567 127.042 35.0001C126.829 35.7434 126.503 36.3882 126.063 36.9344C125.623 37.4805 125.07 37.9129 124.402 38.2315C123.734 38.5349 122.938 38.6866 122.013 38.6866C121.102 38.6866 120.329 38.5425 119.691 38.2542C119.054 37.966 118.538 37.5867 118.144 37.1164V42.8737ZM121.853 36.9799C122.506 36.9799 123.052 36.8661 123.492 36.6385C123.947 36.3958 124.311 36.0772 124.584 35.6828C124.872 35.2732 125.077 34.8029 125.198 34.2719C125.335 33.7409 125.411 33.172 125.426 32.5652C125.426 31.9583 125.358 31.3894 125.221 30.8584C125.1 30.3123 124.895 29.842 124.607 29.4476C124.319 29.0531 123.939 28.7421 123.469 28.5145C123.014 28.2718 122.46 28.1504 121.808 28.1504C121.034 28.1504 120.367 28.3628 119.805 28.7876C119.244 29.1972 118.819 29.7206 118.531 30.3578C118.364 30.7067 118.25 31.0708 118.19 31.4501C118.129 31.8142 118.099 32.1935 118.099 32.5879C118.099 33.043 118.129 33.4678 118.19 33.8623C118.25 34.2415 118.364 34.6056 118.531 34.9546C118.819 35.5311 119.236 36.0165 119.782 36.411C120.344 36.7902 121.034 36.9799 121.853 36.9799ZM133.376 38.6866C132.421 38.6866 131.594 38.5349 130.896 38.2315C130.198 37.928 129.622 37.5033 129.167 36.9571C128.711 36.411 128.37 35.7662 128.143 35.0228C127.915 34.2795 127.801 33.4678 127.801 32.5879C127.801 31.7383 127.923 30.9419 128.165 30.1985C128.408 29.44 128.765 28.7876 129.235 28.2415C129.705 27.6802 130.297 27.2402 131.01 26.9216C131.723 26.5879 132.588 26.421 133.604 26.421C134.211 26.421 134.749 26.4892 135.22 26.6258C135.69 26.7471 136.13 26.952 136.54 27.2402C136.964 27.5133 137.328 27.8774 137.632 28.3325C137.935 28.7876 138.155 29.3414 138.292 29.9937H136.312C136.084 29.3262 135.72 28.8483 135.22 28.5601C134.734 28.2718 134.158 28.1353 133.49 28.1504C132.838 28.1504 132.261 28.2794 131.761 28.5373C131.275 28.78 130.881 29.1062 130.577 29.5158C130.289 29.9254 130.077 30.4033 129.94 30.9495C129.804 31.4804 129.735 32.0266 129.735 32.5879C129.735 33.1796 129.804 33.7409 129.94 34.2719C130.092 34.8029 130.312 35.2732 130.6 35.6828C130.904 36.0772 131.29 36.3958 131.761 36.6385C132.231 36.8661 132.792 36.9799 133.445 36.9799C133.763 36.9799 134.074 36.9495 134.378 36.8888C134.696 36.8282 134.985 36.7295 135.242 36.593C135.516 36.4413 135.751 36.2441 135.948 36.0014C136.145 35.7586 136.289 35.4628 136.38 35.1139H138.383C138.261 35.7359 138.042 36.2744 137.723 36.7295C137.42 37.1695 137.04 37.5412 136.585 37.8446C136.13 38.1329 135.629 38.3452 135.083 38.4818C134.537 38.6183 133.968 38.6866 133.376 38.6866ZM139.014 38.55V26.5575H140.948V31.7232H143.042L146.592 26.5575H148.799L144.794 32.2693L149.141 38.55H146.865L143.269 33.4071H140.948V38.55H139.014ZM150.883 38.55H148.994V26.5575H150.928V35.751C151.034 35.5386 151.178 35.3111 151.36 35.0683C151.543 34.8104 151.687 34.6132 151.793 34.4767L157.596 26.5575H159.507V38.55H157.573V29.3565C157.452 29.5841 157.315 29.8041 157.163 30.0165C157.027 30.2137 156.898 30.3881 156.776 30.5399L150.883 38.55ZM166.168 23.4854C166.805 23.4854 167.313 23.3641 167.693 23.1213C168.087 22.8786 168.284 22.4538 168.284 21.847H170.059C170.029 22.9393 169.665 23.7357 168.967 24.2364C168.284 24.737 167.344 24.9873 166.145 24.9873C164.947 24.9873 164.006 24.737 163.324 24.2364C162.656 23.7357 162.307 22.9393 162.277 21.847H164.052C164.067 22.4538 164.264 22.8786 164.643 23.1213C165.023 23.3641 165.531 23.4854 166.168 23.4854ZM162.618 38.55H160.729V26.5575H162.664V35.751C162.77 35.5386 162.914 35.3111 163.096 35.0683C163.278 34.8104 163.422 34.6132 163.528 34.4767L169.331 26.5575H171.243V38.55H169.308V29.3565C169.187 29.5841 169.051 29.8041 168.899 30.0165C168.762 30.2137 168.633 30.3881 168.512 30.5399L162.618 38.55Z" fill="white"/>
<path d="M6.53725 81V22.4958H48.4915V31.9293H16.881V45.6658H29.7072C32.5759 45.6658 35.3066 45.8864 37.8995 46.3278C40.5475 46.7691 42.8921 47.5966 44.9332 48.8103C46.9744 49.9688 48.5742 51.6238 49.7327 53.7753C50.8912 55.9268 51.4705 58.7403 51.4705 62.2158C51.4705 65.8568 50.836 68.8909 49.5672 71.3183C48.3535 73.7456 46.6434 75.6764 44.4367 77.1108C42.2852 78.4899 39.8027 79.4829 36.9892 80.0898C34.2309 80.6966 31.3346 81 28.3005 81H6.53725ZM16.881 71.5665H28.135C29.7348 71.5665 31.3071 71.4562 32.8517 71.2355C34.3964 71.0148 35.8031 70.6011 37.072 69.9943C38.3408 69.3874 39.3338 68.5048 40.051 67.3463C40.8233 66.1878 41.2095 64.6707 41.2095 62.795C41.2095 60.9745 40.8509 59.5126 40.1337 58.4093C39.4717 57.3059 38.5339 56.506 37.3202 56.0095C36.1617 55.4579 34.8377 55.0993 33.3482 54.9338C31.8587 54.7683 30.2865 54.6855 28.6315 54.6855H16.881V71.5665ZM62.5751 81.4344C61.127 81.4344 59.7202 81.2276 58.3549 80.8138C57.0309 80.4001 55.831 79.8001 54.7552 79.014C53.6795 78.1865 52.8313 77.1728 52.2107 75.9729C51.5901 74.7317 51.2797 73.2836 51.2797 71.6286C51.2797 69.5184 51.6935 67.8014 52.521 66.4774C53.3485 65.112 54.4656 64.0776 55.8724 63.3743C57.3205 62.6709 58.9548 62.1951 60.7753 61.9468C62.5958 61.6572 64.4991 61.5124 66.4851 61.5124H72.8775C72.8775 60.0643 72.6499 58.823 72.1948 57.7886C71.7397 56.7129 71.0156 55.8647 70.0226 55.2441C69.071 54.6235 67.8297 54.3131 66.2989 54.3131C65.3059 54.3131 64.3749 54.4373 63.5061 54.6855C62.6786 54.8924 61.9545 55.2441 61.3339 55.7406C60.7546 56.1957 60.3409 56.7956 60.0926 57.5404H52.3348C52.6244 55.844 53.2037 54.3959 54.0726 53.196C54.9828 51.9548 56.0792 50.9411 57.3619 50.155C58.6859 49.3688 60.134 48.7896 61.7062 48.4172C63.2785 48.0035 64.8714 47.7966 66.4851 47.7966C69.6709 47.7966 72.2569 48.4172 74.2429 49.6585C76.2702 50.8997 77.7597 52.6788 78.7114 54.9958C79.663 57.3128 80.1388 60.1056 80.1388 63.3743V81H73.436L73.2499 77.028C72.3396 78.1865 71.2845 79.0968 70.0847 79.7588C68.9262 80.3794 67.7056 80.8138 66.423 81.0621C65.1404 81.3103 63.8577 81.4344 62.5751 81.4344ZM64.3129 75.2903C66.0092 75.2903 67.4987 74.9799 68.7814 74.3593C70.064 73.7387 71.0777 72.8698 71.8224 71.7527C72.5672 70.6356 72.9395 69.3323 72.9395 67.8428V66.8498H67.0436C65.9679 66.8498 64.9335 66.8911 63.9405 66.9739C62.9475 67.0153 62.0579 67.1808 61.2718 67.4704C60.5271 67.7186 59.9271 68.1117 59.472 68.6496C59.0169 69.1874 58.7893 69.9529 58.7893 70.9459C58.7893 71.8975 59.0376 72.7043 59.5341 73.3663C60.0306 73.9869 60.6926 74.4628 61.5201 74.7938C62.3889 75.1248 63.3199 75.2903 64.3129 75.2903ZM95.3737 81.4344C93.6773 81.4344 91.9809 81.2689 90.2845 80.9379C88.6295 80.5656 87.078 79.9863 85.6299 79.2002C84.2231 78.3727 83.0646 77.2969 82.1544 75.9729C81.2441 74.6489 80.7062 73.0146 80.5407 71.07H87.9262C88.0503 71.9803 88.5054 72.725 89.2915 73.3043C90.119 73.8835 91.0707 74.3179 92.1464 74.6076C93.2635 74.8558 94.2979 74.9799 95.2495 74.9799C96.2839 74.9799 97.2976 74.8765 98.2906 74.6696C99.2836 74.4214 100.111 74.0076 100.773 73.4284C101.476 72.8078 101.828 71.9596 101.828 70.8838C101.828 69.8908 101.58 69.1461 101.083 68.6496C100.628 68.1531 99.987 67.8221 99.1595 67.6566C98.3734 67.4497 97.4631 67.3463 96.4287 67.3463H90.719V61.5745H95.2495C96.0357 61.5745 96.7597 61.5124 97.4217 61.3883C98.0837 61.2641 98.663 61.0573 99.1595 60.7676C99.6974 60.478 100.111 60.1056 100.401 59.6505C100.69 59.154 100.835 58.5748 100.835 57.9128C100.835 56.9611 100.566 56.2371 100.028 55.7406C99.4905 55.2027 98.7871 54.8303 97.9182 54.6235C97.0494 54.3752 96.1598 54.2511 95.2495 54.2511C94.2565 54.2511 93.2635 54.3545 92.2705 54.5614C91.3189 54.7683 90.4914 55.1406 89.788 55.6785C89.126 56.2164 88.7123 56.9611 88.5468 57.9128H81.2855C81.5337 55.3475 82.3612 53.3408 83.768 51.8927C85.1747 50.4032 86.9125 49.3481 88.9812 48.7275C91.05 48.1069 93.1394 47.7966 95.2495 47.7966C96.739 47.7966 98.2285 47.9414 99.718 48.231C101.249 48.5206 102.635 49.0171 103.876 49.7205C105.117 50.4239 106.11 51.3548 106.855 52.5133C107.6 53.6718 107.972 55.12 107.972 56.8577C107.972 58.2231 107.683 59.485 107.103 60.6435C106.524 61.7606 105.614 62.6502 104.373 63.3122C106.11 63.9742 107.352 64.9879 108.096 66.3533C108.841 67.7186 109.214 69.2909 109.214 71.07C109.214 72.9319 108.8 74.5248 107.972 75.8488C107.186 77.1728 106.11 78.2486 104.745 79.0761C103.421 79.9036 101.932 80.5035 100.277 80.8759C98.663 81.2482 97.0287 81.4344 95.3737 81.4344ZM120.284 81.4344C118.835 81.4344 117.429 81.2276 116.063 80.8138C114.739 80.4001 113.539 79.8001 112.464 79.014C111.388 78.1865 110.54 77.1728 109.919 75.9729C109.298 74.7317 108.988 73.2836 108.988 71.6286C108.988 69.5184 109.402 67.8014 110.229 66.4774C111.057 65.112 112.174 64.0776 113.581 63.3743C115.029 62.6709 116.663 62.1951 118.484 61.9468C120.304 61.6572 122.207 61.5124 124.193 61.5124H130.586C130.586 60.0643 130.358 58.823 129.903 57.7886C129.448 56.7129 128.724 55.8647 127.731 55.2441C126.779 54.6235 125.538 54.3131 124.007 54.3131C123.014 54.3131 122.083 54.4373 121.214 54.6855C120.387 54.8924 119.663 55.2441 119.042 55.7406C118.463 56.1957 118.049 56.7956 117.801 57.5404H110.043C110.333 55.844 110.912 54.3959 111.781 53.196C112.691 51.9548 113.788 50.9411 115.07 50.155C116.394 49.3688 117.842 48.7896 119.415 48.4172C120.987 48.0035 122.58 47.7966 124.193 47.7966C127.379 47.7966 129.965 48.4172 131.951 49.6585C133.979 50.8997 135.468 52.6788 136.42 54.9958C137.371 57.3128 137.847 60.1056 137.847 63.3743V81H131.144L130.958 77.028C130.048 78.1865 128.993 79.0968 127.793 79.7588C126.635 80.3794 125.414 80.8138 124.131 81.0621C122.849 81.3103 121.566 81.4344 120.284 81.4344ZM122.021 75.2903C123.718 75.2903 125.207 74.9799 126.49 74.3593C127.772 73.7387 128.786 72.8698 129.531 71.7527C130.276 70.6356 130.648 69.3323 130.648 67.8428V66.8498H124.752C123.676 66.8498 122.642 66.8911 121.649 66.9739C120.656 67.0153 119.766 67.1808 118.98 67.4704C118.235 67.7186 117.636 68.1117 117.18 68.6496C116.725 69.1874 116.498 69.9529 116.498 70.9459C116.498 71.8975 116.746 72.7043 117.242 73.3663C117.739 73.9869 118.401 74.4628 119.228 74.7938C120.097 75.1248 121.028 75.2903 122.021 75.2903ZM140.111 93.0401V48.2931H147.186L147.558 52.7616C148.841 51.0238 150.413 49.7619 152.275 48.9758C154.137 48.1896 156.102 47.7966 158.171 47.7966C161.316 47.7966 163.943 48.5413 166.053 50.0308C168.163 51.5203 169.735 53.5477 170.77 56.113C171.804 58.6368 172.321 61.4917 172.321 64.6776C172.321 67.8634 171.784 70.7183 170.708 73.2422C169.673 75.7661 168.06 77.7728 165.867 79.2623C163.715 80.7104 160.943 81.4344 157.551 81.4344C155.978 81.4344 154.572 81.2689 153.33 80.9379C152.089 80.5656 150.993 80.0898 150.041 79.5105C149.131 78.8899 148.345 78.2279 147.683 77.5245V93.0401H140.111ZM156.495 74.6076C158.606 74.6076 160.261 74.1524 161.46 73.2422C162.66 72.2906 163.529 71.07 164.067 69.5805C164.605 68.0496 164.874 66.436 164.874 64.7396C164.874 62.9605 164.584 61.3055 164.005 59.7746C163.467 58.2438 162.578 57.0025 161.336 56.0509C160.095 55.0993 158.44 54.6235 156.371 54.6235C154.468 54.6235 152.854 55.0993 151.53 56.0509C150.248 56.9611 149.276 58.1817 148.614 59.7126C147.952 61.2435 147.621 62.8984 147.621 64.6776C147.621 66.4981 147.931 68.1738 148.551 69.7046C149.172 71.1941 150.144 72.394 151.468 73.3043C152.792 74.1731 154.468 74.6076 156.495 74.6076Z" fill="white"/>
<path d="M184.83 40.8783V47.0199V51.9332V53.008C184.83 57.9212 180.838 61.7597 175.924 61.7597C174.696 61.7597 173.775 60.8385 173.775 59.6102V56.8465C173.775 53.7757 175.157 51.0119 177.46 49.1695V40.8783C177.46 30.7447 185.598 22.4535 195.885 22.4535H202.026H213.081H240.104C245.939 22.4535 251.313 25.2172 254.69 29.6699L262.214 39.1894V38.4217C262.214 36.4256 263.749 34.7367 265.899 34.7367C267.895 34.7367 269.584 36.4256 269.584 38.4217V48.8624L270.198 49.6301C271.273 51.1655 272.04 53.008 272.04 54.8504V70.665C272.04 76.6531 267.127 81.4128 261.139 81.4128C257.454 81.4128 254.076 79.5704 252.08 76.4996L245.478 66.2124C245.171 65.5982 245.017 64.9841 245.017 64.2164V57.1535L242.561 54.3898V74.0429C242.561 78.1885 239.183 81.4128 235.191 81.4128H230.278C226.132 81.4128 222.908 78.1885 222.908 74.0429V70.8186C222.447 70.9721 221.986 70.9721 221.679 71.1257V72.8146C221.679 74.1965 220.451 75.2712 219.223 75.2712C217.841 75.2712 216.766 74.1965 216.766 72.8146V71.5863C216.305 71.5863 215.845 71.5863 215.538 71.5863C215.077 71.5863 214.617 71.5863 214.309 71.5863V72.8146C214.309 74.1965 213.081 75.2712 211.853 75.2712C210.471 75.2712 209.396 74.1965 209.396 72.8146V71.1257C208.936 70.9721 208.475 70.9721 208.168 70.8186V74.0429C208.168 78.1885 204.79 81.4128 200.798 81.4128H195.885C191.739 81.4128 188.515 78.1885 188.515 74.0429V35.965C188.515 34.7367 188.668 33.5084 188.975 32.2801C186.365 34.2761 184.83 37.3469 184.83 40.8783ZM198.802 30.7447C196.959 31.8195 195.885 33.8155 195.885 35.965V74.0429H200.798V66.673V65.4447V64.2164C200.798 56.0788 207.4 49.4765 215.538 49.4765C223.675 49.4765 230.278 56.0788 230.278 64.2164V65.4447V66.673V74.0429H235.191V44.5633C235.191 43.0279 236.112 41.7995 237.494 41.1854C238.876 40.7248 240.565 41.0318 241.486 42.2602L251.313 53.315C251.927 53.9292 252.387 54.8504 252.387 55.6181V63.1416L258.222 72.5075C258.836 73.5823 259.911 74.0429 261.139 74.0429C262.982 74.0429 264.671 72.5075 264.671 70.665V54.8504C264.671 54.6969 264.517 54.3898 264.363 54.0827L248.856 34.2761C246.86 31.5124 243.636 29.977 240.104 29.977H232.427C231.967 32.1265 230.892 34.1225 229.203 35.8115L227.975 37.0398C224.75 40.2641 220.144 42.1066 215.538 42.1066C210.778 42.1066 206.172 40.2641 202.948 37.0398L201.719 35.8115C200.337 34.4296 199.263 32.7407 198.802 30.7447ZM208.321 63.2951C209.857 63.7558 212.16 64.3699 215.538 64.3699C218.762 64.3699 221.065 63.7558 222.601 63.2951L222.754 63.1416C222.294 59.6102 219.223 56.8465 215.538 56.8465C211.699 56.8465 208.782 59.6102 208.168 63.1416L208.321 63.2951ZM262.214 61.7597C262.214 63.1416 260.986 64.2164 259.757 64.2164C258.375 64.2164 257.301 63.1416 257.301 61.7597C257.301 60.5314 258.375 59.3031 259.757 59.3031C260.986 59.3031 262.214 60.5314 262.214 61.7597Z" fill="white"/>
</svg>
